<svg width="428.000000" height="926.000000" viewBox="0 0 428 926" fill="none" xmlns="http://www.w3.org/2000/svg" xmlns:xlink="http://www.w3.org/1999/xlink">
	<desc>
			Created with Pixso.
	</desc>
	<defs>
		<filter id="filter_1_6_dd" x="-296.859741" y="-41.247833" width="668.126953" height="793.688232" filterUnits="userSpaceOnUse" color-interpolation-filters="sRGB">
			<feFlood flood-opacity="0" result="BackgroundImageFix"/>
			<feBlend mode="normal" in="SourceGraphic" in2="BackgroundImageFix" result="shape"/>
			<feGaussianBlur stdDeviation="33.3333" result="effect_layerBlur_1"/>
		</filter>
		<filter id="filter_1_7_dd" x="-150.203125" y="193.851837" width="738.666687" height="883.148193" filterUnits="userSpaceOnUse" color-interpolation-filters="sRGB">
			<feFlood flood-opacity="0" result="BackgroundImageFix"/>
			<feBlend mode="normal" in="SourceGraphic" in2="BackgroundImageFix" result="shape"/>
			<feGaussianBlur stdDeviation="33.3333" result="effect_layerBlur_1"/>
		</filter>
		<filter id="filter_1_8_dd" x="-20.666626" y="-177.000000" width="738.666687" height="883.148132" filterUnits="userSpaceOnUse" color-interpolation-filters="sRGB">
			<feFlood flood-opacity="0" result="BackgroundImageFix"/>
			<feBlend mode="normal" in="SourceGraphic" in2="BackgroundImageFix" result="shape"/>
			<feGaussianBlur stdDeviation="33.3333" result="effect_layerBlur_1"/>
		</filter>
		<filter id="filter_1_10_dd" x="-24.764160" y="-94.841797" width="277.055420" height="266.575745" filterUnits="userSpaceOnUse" color-interpolation-filters="sRGB">
			<feFlood flood-opacity="0" result="BackgroundImageFix"/>
			<feGaussianBlur in="BackgroundImage" stdDeviation="13.3333"/>
			<feComposite in2="SourceAlpha" operator="in" result="effect_backgroundBlur_1"/>
			<feBlend mode="normal" in="SourceGraphic" in2="effect_backgroundBlur_1" result="shape"/>
		</filter>
		<filter id="filter_1_11_dd" x="-12.586304" y="-82.252380" width="252.317383" height="242.238281" filterUnits="userSpaceOnUse" color-interpolation-filters="sRGB">
			<feFlood flood-opacity="0" result="BackgroundImageFix"/>
			<feGaussianBlur in="BackgroundImage" stdDeviation="13.3333"/>
			<feComposite in2="SourceAlpha" operator="in" result="effect_backgroundBlur_1"/>
			<feBlend mode="normal" in="SourceGraphic" in2="effect_backgroundBlur_1" result="shape"/>
		</filter>
		<filter id="filter_1_12_dd" x="6.343140" y="-63.944092" width="214.247925" height="205.637604" filterUnits="userSpaceOnUse" color-interpolation-filters="sRGB">
			<feFlood flood-opacity="0" result="BackgroundImageFix"/>
			<feGaussianBlur in="BackgroundImage" stdDeviation="13.3333"/>
			<feComposite in2="SourceAlpha" operator="in" result="effect_backgroundBlur_1"/>
			<feBlend mode="normal" in="SourceGraphic" in2="effect_backgroundBlur_1" result="shape"/>
		</filter>
		<filter id="filter_1_13_dd" x="-41.369141" y="-109.371155" width="310.265137" height="295.622711" filterUnits="userSpaceOnUse" color-interpolation-filters="sRGB">
			<feFlood flood-opacity="0" result="BackgroundImageFix"/>
			<feGaussianBlur in="BackgroundImage" stdDeviation="13.3333"/>
			<feComposite in2="SourceAlpha" operator="in" result="effect_backgroundBlur_1"/>
			<feBlend mode="normal" in="SourceGraphic" in2="effect_backgroundBlur_1" result="shape"/>
		</filter>
		<filter id="filter_1_14_dd" x="-57.973999" y="-127.014587" width="344.512451" height="330.892578" filterUnits="userSpaceOnUse" color-interpolation-filters="sRGB">
			<feFlood flood-opacity="0" result="BackgroundImageFix"/>
			<feGaussianBlur in="BackgroundImage" stdDeviation="13.3333"/>
			<feComposite in2="SourceAlpha" operator="in" result="effect_backgroundBlur_1"/>
			<feBlend mode="normal" in="SourceGraphic" in2="effect_backgroundBlur_1" result="shape"/>
		</filter>
		<filter id="filter_1_15_dd" x="-72.503662" y="-140.506165" width="372.533203" height="357.863647" filterUnits="userSpaceOnUse" color-interpolation-filters="sRGB">
			<feFlood flood-opacity="0" result="BackgroundImageFix"/>
			<feGaussianBlur in="BackgroundImage" stdDeviation="13.3333"/>
			<feComposite in2="SourceAlpha" operator="in" result="effect_backgroundBlur_1"/>
			<feBlend mode="normal" in="SourceGraphic" in2="effect_backgroundBlur_1" result="shape"/>
		</filter>
		<filter id="filter_1_36_dd" x="221.087280" y="390.959961" width="153.251587" height="153.251587" filterUnits="userSpaceOnUse" color-interpolation-filters="sRGB">
			<feFlood flood-opacity="0" result="BackgroundImageFix"/>
			<feGaussianBlur in="BackgroundImage" stdDeviation="6.66667"/>
			<feComposite in2="SourceAlpha" operator="in" result="effect_backgroundBlur_1"/>
			<feColorMatrix in="SourceAlpha" type="matrix" values="0 0 0 0 0 0 0 0 0 0 0 0 0 0 0 0 0 0 127 0" result="hardAlpha"/>
			<feOffset dx="0" dy="4"/>
			<feGaussianBlur stdDeviation="7.33333"/>
			<feComposite in2="hardAlpha" operator="out" k2="-1" k3="1"/>
			<feColorMatrix type="matrix" values="0 0 0 0 0 0 0 0 0 0 0 0 0 0 0 0 0 0 0.1 0"/>
			<feBlend mode="normal" in2="effect_backgroundBlur_1" result="effect_dropShadow_2"/>
			<feBlend mode="normal" in="SourceGraphic" in2="effect_dropShadow_2" result="shape"/>
		</filter>
		<filter id="filter_1_37_dd" x="268.483521" y="458.091675" width="126.358765" height="126.358887" filterUnits="userSpaceOnUse" color-interpolation-filters="sRGB">
			<feFlood flood-opacity="0" result="BackgroundImageFix"/>
			<feGaussianBlur in="BackgroundImage" stdDeviation="6.66667"/>
			<feComposite in2="SourceAlpha" operator="in" result="effect_backgroundBlur_1"/>
			<feColorMatrix in="SourceAlpha" type="matrix" values="0 0 0 0 0 0 0 0 0 0 0 0 0 0 0 0 0 0 127 0" result="hardAlpha"/>
			<feOffset dx="0" dy="4"/>
			<feGaussianBlur stdDeviation="7.33333"/>
			<feComposite in2="hardAlpha" operator="out" k2="-1" k3="1"/>
			<feColorMatrix type="matrix" values="0 0 0 0 0 0 0 0 0 0 0 0 0 0 0 0 0 0 0.1 0"/>
			<feBlend mode="normal" in2="effect_backgroundBlur_1" result="effect_dropShadow_2"/>
			<feBlend mode="normal" in="SourceGraphic" in2="effect_dropShadow_2" result="shape"/>
		</filter>
		<filter id="filter_1_38_dd" x="188.770996" y="379.199799" width="126.358765" height="126.358887" filterUnits="userSpaceOnUse" color-interpolation-filters="sRGB">
			<feFlood flood-opacity="0" result="BackgroundImageFix"/>
			<feGaussianBlur in="BackgroundImage" stdDeviation="6.66667"/>
			<feComposite in2="SourceAlpha" operator="in" result="effect_backgroundBlur_1"/>
			<feColorMatrix in="SourceAlpha" type="matrix" values="0 0 0 0 0 0 0 0 0 0 0 0 0 0 0 0 0 0 127 0" result="hardAlpha"/>
			<feOffset dx="0" dy="4"/>
			<feGaussianBlur stdDeviation="7.33333"/>
			<feComposite in2="hardAlpha" operator="out" k2="-1" k3="1"/>
			<feColorMatrix type="matrix" values="0 0 0 0 0 0 0 0 0 0 0 0 0 0 0 0 0 0 0.1 0"/>
			<feBlend mode="normal" in2="effect_backgroundBlur_1" result="effect_dropShadow_2"/>
			<feBlend mode="normal" in="SourceGraphic" in2="effect_dropShadow_2" result="shape"/>
		</filter>
		<filter id="filter_1_39_dd" x="52.849243" y="438.348175" width="49.973755" height="46.169586" filterUnits="userSpaceOnUse" color-interpolation-filters="sRGB">
			<feFlood flood-opacity="0" result="BackgroundImageFix"/>
			<feGaussianBlur in="BackgroundImage" stdDeviation="2.66667"/>
			<feComposite in2="SourceAlpha" operator="in" result="effect_backgroundBlur_1"/>
			<feBlend mode="normal" in="SourceGraphic" in2="effect_backgroundBlur_1" result="shape"/>
		</filter>
		<filter id="filter_1_40_dd" x="71.021484" y="439.087097" width="63.602905" height="57.935303" filterUnits="userSpaceOnUse" color-interpolation-filters="sRGB">
			<feFlood flood-opacity="0" result="BackgroundImageFix"/>
			<feGaussianBlur in="BackgroundImage" stdDeviation="2.66667"/>
			<feComposite in2="SourceAlpha" operator="in" result="effect_backgroundBlur_1"/>
			<feBlend mode="normal" in="SourceGraphic" in2="effect_backgroundBlur_1" result="shape"/>
		</filter>
		<filter id="filter_1_26_dd" x="234.593750" y="700.560669" width="53.057861" height="52.306396" filterUnits="userSpaceOnUse" color-interpolation-filters="sRGB">
			<feFlood flood-opacity="0" result="BackgroundImageFix"/>
			<feGaussianBlur in="BackgroundImage" stdDeviation="2.66667"/>
			<feComposite in2="SourceAlpha" operator="in" result="effect_backgroundBlur_1"/>
			<feBlend mode="normal" in="SourceGraphic" in2="effect_backgroundBlur_1" result="shape"/>
		</filter>
		<clipPath id="clip1_5">
			<rect id="log in" width="428.000000" height="926.000000" fill="white" fill-opacity="0"/>
		</clipPath>
		<linearGradient id="paint_linear_1_18_0" x1="277.598663" y1="389.080566" x2="340.626923" y2="481.101868" gradientUnits="userSpaceOnUse">
			<stop stop-color="#FFCD62"/>
			<stop offset="1.000000" stop-color="#FEA12F"/>
		</linearGradient>
		<linearGradient id="paint_linear_1_21_0" x1="75.917847" y1="379.519714" x2="173.551010" y2="457.626221" gradientUnits="userSpaceOnUse">
			<stop stop-color="#EB5757"/>
			<stop offset="1.000000" stop-color="#FDB2B2"/>
		</linearGradient>
		<linearGradient id="paint_linear_1_25_0" x1="183.289917" y1="650.573486" x2="274.227417" y2="735.448486" gradientUnits="userSpaceOnUse">
			<stop stop-color="#EB5757"/>
			<stop offset="1.000000" stop-color="#FDB2B2"/>
		</linearGradient>
	</defs>
	<rect id="log in" width="428.000000" height="926.000000" fill="#FFFFFF" fill-opacity="1.000000"/>
	<g clip-path="url(#clip1_5)">
		<g filter="url(#filter_1_6_dd)">
			<ellipse id="Ellipse 1628" cx="37.203735" cy="355.596313" rx="234.063492" ry="296.844147" fill="#EA94D7" fill-opacity="1.000000"/>
		</g>
		<ellipse id="Ellipse 1628" cx="37.203735" cy="355.596313" rx="233.563492" ry="296.344147" stroke="#707070" stroke-opacity="0" stroke-width="1.000000"/>
		<g filter="url(#filter_1_7_dd)">
			<ellipse id="Ellipse 1629" cx="219.130249" cy="635.425903" rx="269.333344" ry="341.574066" fill="#FFDADA" fill-opacity="1.000000"/>
		</g>
		<ellipse id="Ellipse 1629" cx="219.130249" cy="635.425903" rx="268.833344" ry="341.074066" stroke="#707070" stroke-opacity="0" stroke-width="1.000000"/>
		<g filter="url(#filter_1_8_dd)">
			<ellipse id="Ellipse 1627" cx="348.666748" cy="264.574066" rx="269.333344" ry="341.574066" fill="#DDCDFF" fill-opacity="1.000000"/>
		</g>
		<ellipse id="Ellipse 1627" cx="348.666748" cy="264.574066" rx="268.833344" ry="341.074066" stroke="#707070" stroke-opacity="0" stroke-width="1.000000"/>
		<g filter="url(#filter_1_10_dd)">
			<path id="Vector 2009" d="M-20.08 68.13C-28.33 60.75 -29.98 34.32 29.45 -12.37C52.04 -30.12 59.84 -41.86 58.23 -72.07C56.96 -95.9 132.65 -116.88 221.54 -43.9C257.45 -14.16 269.29 58.87 212.46 99.44C113.87 169.8 50.87 193.57 18.74 147.96C5.71 129.46 17.53 108.51 7.36 87.58C4.24 81.16 -7.76 79.15 -20.08 68.13Z" fill="#FFFFFF" fill-opacity="0" fill-rule="nonzero"/>
		</g>
		<path id="Vector 2009" d="M29.45 -12.37C52.04 -30.12 59.84 -41.86 58.23 -72.07C56.96 -95.9 132.65 -116.88 221.54 -43.9C257.45 -14.16 269.29 58.87 212.46 99.44C113.87 169.8 50.87 193.57 18.74 147.96C5.71 129.46 17.53 108.51 7.36 87.58C4.24 81.16 -7.76 79.15 -20.08 68.13C-28.33 60.75 -29.98 34.32 29.45 -12.37Z" stroke="#FAFAFA" stroke-opacity="1.000000" stroke-width="1.000000"/>
		<g filter="url(#filter_1_11_dd)">
			<path id="Vector 2013" d="M-8.28 65.83C-15.79 59.13 -17.29 35.12 36.81 -7.29C57.38 -23.41 64.48 -34.08 63.01 -61.52C61.86 -83.17 130.77 -102.23 211.69 -35.93C244.39 -8.92 255.16 57.42 203.42 94.27C113.67 158.19 56.31 179.78 27.06 138.34C15.2 121.54 25.97 102.51 16.7 83.5C13.86 77.66 2.94 75.84 -8.28 65.83Z" fill="#FFFFFF" fill-opacity="0" fill-rule="nonzero"/>
		</g>
		<path id="Vector 2013" d="M36.81 -7.29C57.38 -23.41 64.48 -34.08 63.01 -61.52C61.86 -83.17 130.77 -102.23 211.69 -35.93C244.39 -8.92 255.16 57.42 203.42 94.27C113.67 158.19 56.31 179.78 27.06 138.34C15.2 121.54 25.97 102.51 16.7 83.5C13.86 77.66 2.94 75.84 -8.28 65.83C-15.79 59.13 -17.29 35.12 36.81 -7.29Z" stroke="#FAFAFA" stroke-opacity="1.000000" stroke-width="1.000000"/>
		<g filter="url(#filter_1_12_dd)">
			<path id="Vector 2014" d="M10.28 61.75C3.91 56.06 2.64 35.69 48.5 -0.28C65.94 -13.96 71.96 -23 70.71 -46.29C69.73 -64.65 128.15 -80.81 196.74 -24.58C224.46 -1.66 233.59 54.61 189.74 85.87C113.65 140.09 65.03 158.41 40.24 123.26C30.18 109 39.31 92.86 31.46 76.74C29.05 71.78 19.79 70.23 10.28 61.75Z" fill="#FFFFFF" fill-opacity="0" fill-rule="nonzero"/>
		</g>
		<path id="Vector 2014" d="M48.5 -0.28C65.94 -13.96 71.96 -23 70.71 -46.29C69.73 -64.65 128.15 -80.81 196.74 -24.58C224.46 -1.66 233.59 54.61 189.74 85.87C113.65 140.09 65.03 158.41 40.24 123.26C30.18 109 39.31 92.86 31.46 76.74C29.05 71.78 19.79 70.23 10.28 61.75C3.91 56.06 2.64 35.69 48.5 -0.28Z" stroke="#FAFAFA" stroke-opacity="1.000000" stroke-width="1.000000"/>
		<g filter="url(#filter_1_13_dd)">
			<path id="Vector 2010" d="M-36.18 71.37C-45.43 63.19 -47.28 33.86 19.31 -17.93C44.62 -37.62 53.35 -50.65 51.55 -84.17C50.12 -110.6 134.93 -133.88 234.5 -52.91C274.74 -19.92 288 61.1 224.33 106.1C113.88 184.17 43.3 210.54 7.31 159.93C-7.29 139.41 5.96 116.17 -5.44 92.95C-8.94 85.82 -22.37 83.59 -36.18 71.37Z" fill="#FFFFFF" fill-opacity="0" fill-rule="nonzero"/>
		</g>
		<path id="Vector 2010" d="M19.31 -17.93C44.62 -37.62 53.35 -50.65 51.55 -84.17C50.12 -110.6 134.93 -133.88 234.5 -52.91C274.74 -19.92 288 61.1 224.33 106.1C113.88 184.17 43.3 210.54 7.31 159.93C-7.29 139.41 5.96 116.17 -5.44 92.95C-8.94 85.82 -22.37 83.59 -36.18 71.37C-45.43 63.19 -47.28 33.86 19.31 -17.93Z" stroke="#FAFAFA" stroke-opacity="1.000000" stroke-width="1.000000"/>
		<g filter="url(#filter_1_14_dd)">
			<path id="Vector 2011" d="M-52.26 75.31C-62.54 66.14 -64.59 33.31 9.37 -24.69C37.48 -46.74 47.18 -61.32 45.18 -98.85C43.59 -128.45 137.79 -154.51 248.39 -63.85C293.09 -26.91 307.82 63.81 237.1 114.2C114.42 201.61 36.02 231.13 -3.96 174.47C-20.17 151.49 -5.46 125.47 -18.12 99.47C-22.01 91.49 -36.93 88.99 -52.26 75.31Z" fill="#FFFFFF" fill-opacity="0" fill-rule="nonzero"/>
		</g>
		<path id="Vector 2011" d="M9.37 -24.69C37.48 -46.74 47.18 -61.32 45.18 -98.85C43.59 -128.45 137.79 -154.51 248.39 -63.85C293.09 -26.91 307.82 63.81 237.1 114.2C114.42 201.61 36.02 231.13 -3.96 174.47C-20.17 151.49 -5.46 125.47 -18.12 99.47C-22.01 91.49 -36.93 88.99 -52.26 75.31C-62.54 66.14 -64.59 33.31 9.37 -24.69Z" stroke="#FAFAFA" stroke-opacity="0.898039" stroke-width="1.000000"/>
		<g filter="url(#filter_1_15_dd)">
			<path id="Vector 2012" d="M-66.37 78.32C-77.48 68.4 -79.7 32.89 0.29 -29.85C30.7 -53.7 41.19 -69.48 39.02 -110.08C37.31 -142.1 139.19 -170.29 258.81 -72.22C307.15 -32.26 323.08 65.88 246.59 120.39C113.91 214.94 29.11 246.88 -14.12 185.59C-31.66 160.73 -15.75 132.58 -29.44 104.46C-33.64 95.82 -49.78 93.12 -66.37 78.32Z" fill="#FFFFFF" fill-opacity="0" fill-rule="nonzero"/>
		</g>
		<path id="Vector 2012" d="M0.29 -29.85C30.7 -53.7 41.19 -69.48 39.02 -110.08C37.31 -142.1 139.19 -170.29 258.81 -72.22C307.15 -32.26 323.08 65.88 246.59 120.39C113.91 214.94 29.11 246.88 -14.12 185.59C-31.66 160.73 -15.75 132.58 -29.44 104.46C-33.64 95.82 -49.78 93.12 -66.37 78.32C-77.48 68.4 -79.7 32.89 0.29 -29.85Z" stroke="#FAFAFA" stroke-opacity="0.698039" stroke-width="1.000000"/>
		<circle id="Ellipse 33" r="52.103382" transform="matrix(0.766319 0.766319 -0.642461 0.642461 317.937 428.998)" fill="url(#paint_linear_1_18_0)" fill-opacity="1.000000"/>
		<circle id="Ellipse 33" r="51.603382" transform="matrix(0.766319 0.766319 -0.642461 0.642461 317.937 428.998)" stroke="#707070" stroke-opacity="0" stroke-width="1.000000"/>
		<g filter="url(#filter_1_36_dd)">
			<circle id="Ellipse 45" r="54.624508" transform="matrix(0.766319 0.766319 -0.642461 0.642461 297.713 463.586)" fill="#FFFFFF" fill-opacity="1.000000"/>
		</g>
		<circle id="Ellipse 45" r="54.124508" transform="matrix(0.766319 0.766319 -0.642461 0.642461 297.713 463.586)" stroke="#707070" stroke-opacity="0" stroke-width="1.000000"/>
		<g filter="url(#filter_1_37_dd)">
			<circle id="Ellipse 46" r="41.178478" transform="matrix(0.766319 0.766319 -0.642461 0.642461 331.663 517.271)" fill="#FFFFFF" fill-opacity="1.000000"/>
		</g>
		<circle id="Ellipse 46" r="40.678478" transform="matrix(0.766319 0.766319 -0.642461 0.642461 331.663 517.271)" stroke="#707070" stroke-opacity="0" stroke-width="1.000000"/>
		<g filter="url(#filter_1_38_dd)">
			<circle id="Ellipse 47" r="41.178478" transform="matrix(0.766319 0.766319 -0.642461 0.642461 251.95 438.379)" fill="#FFFFFF" fill-opacity="1.000000"/>
		</g>
		<circle id="Ellipse 47" r="40.678478" transform="matrix(0.766319 0.766319 -0.642461 0.642461 251.95 438.379)" stroke="#707070" stroke-opacity="0" stroke-width="1.000000"/>
		<rect id="Rectangle 12" x="75.917847" y="379.519714" rx="4.000000" width="97.633163" height="78.106529" transform="rotate(21.4652 75.917847 379.519714)" fill="url(#paint_linear_1_21_0)" fill-opacity="1.000000"/>
		<rect id="Rectangle 12" x="76.200195" y="380.167999" rx="4.000000" width="96.633163" height="77.106529" transform="rotate(21.4652 76.200195 380.167999)" stroke="#707070" stroke-opacity="0" stroke-width="1.000000"/>
		<circle id="Ellipse 62" r="7.322487" transform="matrix(0.93064 0.93064 -0.365937 0.365937 88.3229 408.002)" fill="#FFFFFF" fill-opacity="1.000000"/>
		<circle id="Ellipse 62" r="6.822487" transform="matrix(0.93064 0.93064 -0.365937 0.365937 88.3229 408.002)" stroke="#707070" stroke-opacity="0" stroke-width="1.000000"/>
		<g filter="url(#filter_1_39_dd)">
			<path id="Vector 2" d="M52.84 464.86L92.12 438.34L102.82 484.51L52.84 464.86Z" fill="#FDB2B2" fill-opacity="1.000000" fill-rule="nonzero"/>
		</g>
		<path id="Vector 2" d="" fill="#707070" fill-opacity="0" fill-rule="evenodd"/>
		<g filter="url(#filter_1_40_dd)">
			<path id="Vector 3" d="M71.02 472.01L120.68 439.08L134.62 497.02L71.02 472.01Z" fill="#FDB2B2" fill-opacity="1.000000" fill-rule="nonzero"/>
		</g>
		<path id="Vector 3" d="" fill="#707070" fill-opacity="0" fill-rule="evenodd"/>
		<rect id="Rectangle 12" x="183.289917" y="650.573486" rx="3.000000" width="90.937500" height="84.875000" transform="rotate(16.9711 183.289917 650.573486)" fill="url(#paint_linear_1_25_0)" fill-opacity="1.000000"/>
		<rect id="Rectangle 12" x="183.622192" y="651.197632" rx="3.000000" width="89.937500" height="83.875000" transform="rotate(16.9711 183.622192 651.197632)" stroke="#707070" stroke-opacity="0" stroke-width="1.000000"/>
		<g filter="url(#filter_1_26_dd)">
			<path id="Polygon 1" d="M236.22 720.23C233.04 716.82 234.74 711.24 239.29 710.19L280.21 700.72C284.76 699.67 288.74 703.93 287.38 708.39L275.12 748.57C273.75 753.03 268.07 754.35 264.89 750.93L236.22 720.23Z" fill="#FDB2B2" fill-opacity="1.000000" fill-rule="nonzero"/>
		</g>
		<path id="Polygon 1" d="" fill="#707070" fill-opacity="0" fill-rule="evenodd"/>
		<circle id="Ellipse 62" r="9.093750" transform="matrix(0.956452 0.956452 -0.29189 0.29189 198.391 677.062)" fill="#FFFFFF" fill-opacity="1.000000"/>
		<circle id="Ellipse 62" r="8.593750" transform="matrix(0.956452 0.956452 -0.29189 0.29189 198.391 677.062)" stroke="#707070" stroke-opacity="0" stroke-width="1.000000"/>
	</g>
</svg>
