<svg width="373.000000" height="358.000000" viewBox="0 0 373 358" fill="none" xmlns="http://www.w3.org/2000/svg" xmlns:xlink="http://www.w3.org/1999/xlink">
	<desc>
			Created with Pixso.
	</desc>
	<defs>
		<filter id="filter_1_10_dd" x="47.235840" y="45.158203" width="277.055420" height="266.575745" filterUnits="userSpaceOnUse" color-interpolation-filters="sRGB">
			<feFlood flood-opacity="0" result="BackgroundImageFix"/>
			<feGaussianBlur in="BackgroundImage" stdDeviation="13.3333"/>
			<feComposite in2="SourceAlpha" operator="in" result="effect_backgroundBlur_1"/>
			<feBlend mode="normal" in="SourceGraphic" in2="effect_backgroundBlur_1" result="shape"/>
		</filter>
		<filter id="filter_1_11_dd" x="59.413696" y="57.747620" width="252.317383" height="242.238281" filterUnits="userSpaceOnUse" color-interpolation-filters="sRGB">
			<feFlood flood-opacity="0" result="BackgroundImageFix"/>
			<feGaussianBlur in="BackgroundImage" stdDeviation="13.3333"/>
			<feComposite in2="SourceAlpha" operator="in" result="effect_backgroundBlur_1"/>
			<feBlend mode="normal" in="SourceGraphic" in2="effect_backgroundBlur_1" result="shape"/>
		</filter>
		<filter id="filter_1_12_dd" x="78.343140" y="76.055908" width="214.247925" height="205.637604" filterUnits="userSpaceOnUse" color-interpolation-filters="sRGB">
			<feFlood flood-opacity="0" result="BackgroundImageFix"/>
			<feGaussianBlur in="BackgroundImage" stdDeviation="13.3333"/>
			<feComposite in2="SourceAlpha" operator="in" result="effect_backgroundBlur_1"/>
			<feBlend mode="normal" in="SourceGraphic" in2="effect_backgroundBlur_1" result="shape"/>
		</filter>
		<filter id="filter_1_13_dd" x="30.630859" y="30.628845" width="310.265137" height="295.622711" filterUnits="userSpaceOnUse" color-interpolation-filters="sRGB">
			<feFlood flood-opacity="0" result="BackgroundImageFix"/>
			<feGaussianBlur in="BackgroundImage" stdDeviation="13.3333"/>
			<feComposite in2="SourceAlpha" operator="in" result="effect_backgroundBlur_1"/>
			<feBlend mode="normal" in="SourceGraphic" in2="effect_backgroundBlur_1" result="shape"/>
		</filter>
		<filter id="filter_1_14_dd" x="14.026001" y="12.985474" width="344.512451" height="330.892578" filterUnits="userSpaceOnUse" color-interpolation-filters="sRGB">
			<feFlood flood-opacity="0" result="BackgroundImageFix"/>
			<feGaussianBlur in="BackgroundImage" stdDeviation="13.3333"/>
			<feComposite in2="SourceAlpha" operator="in" result="effect_backgroundBlur_1"/>
			<feBlend mode="normal" in="SourceGraphic" in2="effect_backgroundBlur_1" result="shape"/>
		</filter>
		<filter id="filter_1_15_dd" x="-0.503662" y="-0.506165" width="372.533203" height="357.863647" filterUnits="userSpaceOnUse" color-interpolation-filters="sRGB">
			<feFlood flood-opacity="0" result="BackgroundImageFix"/>
			<feGaussianBlur in="BackgroundImage" stdDeviation="13.3333"/>
			<feComposite in2="SourceAlpha" operator="in" result="effect_backgroundBlur_1"/>
			<feBlend mode="normal" in="SourceGraphic" in2="effect_backgroundBlur_1" result="shape"/>
		</filter>
	</defs>
	<rect id="Component 1" width="371.529053" height="357.000000" fill="#FFFFFF" fill-opacity="0"/>
	<g filter="url(#filter_1_10_dd)">
		<path id="Vector 2009" d="M51.92 208.13C43.67 200.75 42.02 174.32 101.45 127.63C124.04 109.88 131.84 98.14 130.23 67.93C128.96 44.1 204.65 23.12 293.54 96.1C329.45 125.84 341.29 198.87 284.46 239.44C185.87 309.8 122.87 333.57 90.74 287.96C77.71 269.46 89.53 248.51 79.36 227.58C76.24 221.16 64.24 219.15 51.92 208.13Z" fill="#FFFFFF" fill-opacity="0" fill-rule="nonzero"/>
	</g>
	<path id="Vector 2009" d="M101.45 127.63C124.04 109.88 131.84 98.14 130.23 67.93C128.96 44.1 204.65 23.12 293.54 96.1C329.45 125.84 341.29 198.87 284.46 239.44C185.87 309.8 122.87 333.57 90.74 287.96C77.71 269.46 89.53 248.51 79.36 227.58C76.24 221.16 64.24 219.15 51.92 208.13C43.67 200.75 42.02 174.32 101.45 127.63Z" stroke="#FAFAFA" stroke-opacity="1.000000" stroke-width="1.000000"/>
	<g filter="url(#filter_1_11_dd)">
		<path id="Vector 2013" d="M63.72 205.83C56.21 199.13 54.71 175.12 108.81 132.71C129.38 116.59 136.48 105.92 135.01 78.48C133.86 56.83 202.77 37.77 283.69 104.07C316.39 131.08 327.16 197.42 275.42 234.27C185.67 298.19 128.31 319.78 99.06 278.34C87.2 261.54 97.97 242.51 88.7 223.5C85.86 217.66 74.94 215.84 63.72 205.83Z" fill="#FFFFFF" fill-opacity="0" fill-rule="nonzero"/>
	</g>
	<path id="Vector 2013" d="M108.81 132.71C129.38 116.59 136.48 105.92 135.01 78.48C133.86 56.83 202.77 37.77 283.69 104.07C316.39 131.08 327.16 197.42 275.42 234.27C185.67 298.19 128.31 319.78 99.06 278.34C87.2 261.54 97.97 242.51 88.7 223.5C85.86 217.66 74.94 215.84 63.72 205.83C56.21 199.13 54.71 175.12 108.81 132.71Z" stroke="#FAFAFA" stroke-opacity="1.000000" stroke-width="1.000000"/>
	<g filter="url(#filter_1_12_dd)">
		<path id="Vector 2014" d="M82.28 201.75C75.91 196.06 74.64 175.69 120.5 139.72C137.94 126.04 143.96 117 142.71 93.71C141.73 75.35 200.15 59.19 268.74 115.42C296.46 138.34 305.59 194.61 261.74 225.87C185.65 280.09 137.03 298.41 112.24 263.26C102.19 249 111.31 232.86 103.46 216.74C101.05 211.79 91.79 210.23 82.28 201.75Z" fill="#FFFFFF" fill-opacity="0" fill-rule="nonzero"/>
	</g>
	<path id="Vector 2014" d="M120.5 139.72C137.94 126.04 143.96 117 142.71 93.71C141.73 75.35 200.15 59.19 268.74 115.42C296.46 138.34 305.59 194.61 261.74 225.87C185.65 280.09 137.03 298.41 112.24 263.26C102.19 249 111.31 232.86 103.46 216.74C101.05 211.79 91.79 210.23 82.28 201.75C75.91 196.06 74.64 175.69 120.5 139.72Z" stroke="#FAFAFA" stroke-opacity="1.000000" stroke-width="1.000000"/>
	<g filter="url(#filter_1_13_dd)">
		<path id="Vector 2010" d="M35.82 211.37C26.57 203.19 24.72 173.86 91.31 122.07C116.62 102.38 125.35 89.35 123.55 55.83C122.12 29.4 206.93 6.12 306.5 87.09C346.74 120.08 360 201.1 296.33 246.1C185.88 324.17 115.3 350.54 79.31 299.93C64.71 279.41 77.96 256.17 66.56 232.95C63.06 225.82 49.63 223.59 35.82 211.37Z" fill="#FFFFFF" fill-opacity="0" fill-rule="nonzero"/>
	</g>
	<path id="Vector 2010" d="M91.31 122.07C116.62 102.38 125.35 89.35 123.55 55.83C122.12 29.4 206.93 6.12 306.5 87.09C346.74 120.08 360 201.1 296.33 246.1C185.88 324.17 115.3 350.54 79.31 299.93C64.71 279.41 77.96 256.17 66.56 232.95C63.06 225.82 49.63 223.59 35.82 211.37C26.57 203.19 24.72 173.86 91.31 122.07Z" stroke="#FAFAFA" stroke-opacity="1.000000" stroke-width="1.000000"/>
	<g filter="url(#filter_1_14_dd)">
		<path id="Vector 2011" d="M19.74 215.31C9.46 206.14 7.41 173.31 81.37 115.31C109.48 93.26 119.18 78.68 117.18 41.15C115.59 11.55 209.79 -14.51 320.39 76.15C365.09 113.09 379.82 203.81 309.1 254.2C186.42 341.61 108.02 371.13 68.04 314.47C51.83 291.49 66.54 265.47 53.88 239.47C49.99 231.49 35.07 228.99 19.74 215.31Z" fill="#FFFFFF" fill-opacity="0" fill-rule="nonzero"/>
	</g>
	<path id="Vector 2011" d="M81.37 115.31C109.48 93.26 119.18 78.68 117.18 41.15C115.59 11.55 209.79 -14.51 320.39 76.15C365.09 113.09 379.82 203.81 309.1 254.2C186.42 341.61 108.02 371.13 68.04 314.47C51.83 291.49 66.54 265.47 53.88 239.47C49.99 231.49 35.07 228.99 19.74 215.31C9.46 206.14 7.41 173.31 81.37 115.31Z" stroke="#FAFAFA" stroke-opacity="0.898039" stroke-width="1.000000"/>
	<g filter="url(#filter_1_15_dd)">
		<path id="Vector 2012" d="M5.63 218.32C-5.48 208.4 -7.7 172.89 72.29 110.15C102.7 86.3 113.19 70.52 111.02 29.92C109.31 -2.1 211.19 -30.29 330.81 67.78C379.15 107.74 395.08 205.88 318.59 260.39C185.91 354.94 101.11 386.88 57.88 325.59C40.34 300.73 56.25 272.58 42.56 244.46C38.36 235.82 22.22 233.12 5.63 218.32Z" fill="#FFFFFF" fill-opacity="0" fill-rule="nonzero"/>
	</g>
	<path id="Vector 2012" d="M72.29 110.15C102.7 86.3 113.19 70.52 111.02 29.92C109.31 -2.1 211.19 -30.29 330.81 67.78C379.15 107.74 395.08 205.88 318.59 260.39C185.91 354.94 101.11 386.88 57.88 325.59C40.34 300.73 56.25 272.58 42.56 244.46C38.36 235.82 22.22 233.12 5.63 218.32C-5.48 208.4 -7.7 172.89 72.29 110.15Z" stroke="#FAFAFA" stroke-opacity="0.698039" stroke-width="1.000000"/>
</svg>
