<svg width="428.000000" height="1386.000000" viewBox="0 0 428 1386" fill="none" xmlns="http://www.w3.org/2000/svg" xmlns:xlink="http://www.w3.org/1999/xlink">
	<desc>
			Created with Pixso.
	</desc>
	<defs>
		<filter id="filter_1_88_dd" x="0.000000" y="0.000000" width="427.972656" height="1385.681763" filterUnits="userSpaceOnUse" color-interpolation-filters="sRGB">
			<feFlood flood-opacity="0" result="BackgroundImageFix"/>
			<feGaussianBlur in="BackgroundImage" stdDeviation="6.66667"/>
			<feComposite in2="SourceAlpha" operator="in" result="effect_backgroundBlur_1"/>
			<feBlend mode="normal" in="SourceGraphic" in2="effect_backgroundBlur_1" result="shape"/>
		</filter>
	</defs>
	<g filter="url(#filter_1_88_dd)">
		<path id="Vector" d="M419.27 125.34C417.56 123.14 411.85 116.21 400.24 111.3C381.44 103.36 374.04 112.1 342.65 107.3C335.4 106.19 325.46 104.19 316.5 96.81C313.23 94.11 310.34 90.95 307.9 87.43C304.44 81.61 302.03 75.19 300.79 68.46C298.06 53.11 302.06 49.9 299.79 38.76C297.63 28.17 291.59 20.2 287.13 15.55C273.21 0.95 254.97 0.08 250.3 0L49.56 0C36.64 0.45 24.35 5.88 15.04 15.25C6.7 23.86 1.4 35.17 0 47.33L0 1385.68L427.97 1385.68L427.97 145.03C426.63 137.83 423.64 131.08 419.27 125.34Z" fill="#FFFFFF" fill-opacity="1.000000" fill-rule="nonzero"/>
	</g>
	<path id="Vector" d="" fill="#707070" fill-opacity="0" fill-rule="evenodd"/>
</svg>
