<svg width="32.000000" height="28.000000" viewBox="0 0 32 28" fill="none" xmlns="http://www.w3.org/2000/svg" xmlns:xlink="http://www.w3.org/1999/xlink">
	<desc>
			Created with Pixso.
	</desc>
	<defs>
		<radialGradient id="paint_radial_1_143_0" cx="0.000000" cy="0.000000" r="1.000000" gradientUnits="userSpaceOnUse" gradientTransform="translate(13.0113 4.17545) rotate(60.8962) scale(14.7612 15.7253)">
			<stop stop-color="#C83B3B"/>
			<stop offset="1.000000" stop-color="#FB4949"/>
		</radialGradient>
	</defs>
	<rect id="Component 1" width="32.219646" height="28.829773" transform="translate(-0.729675 -0.912415)" fill="#FFFFFF" fill-opacity="0"/>
	<path id="Vector" d="M-0.03 19.5C-0.97 15.55 -0.97 11.46 -0.03 7.51C0.73 3.51 4.27 0.36 8.74 -0.3C13.12 -1.12 17.64 -1.12 22.02 -0.3C26.51 0.37 30.06 3.55 30.8 7.57C31.71 11.48 31.71 15.52 30.8 19.43C30.05 23.53 26.39 26.74 21.79 27.33C17.56 28.11 13.19 28.11 8.96 27.33C4.38 26.75 0.75 23.56 -0.03 19.5Z" fill="url(#paint_radial_1_143_0)" fill-opacity="1.000000" fill-rule="nonzero"/>
	<path id="Vector" d="" fill="#707070" fill-opacity="0" fill-rule="evenodd"/>
	<path id="Vector2" d="M16.04 18.05C16.04 18.11 16.02 18.17 15.99 18.23C15.95 18.28 15.9 18.32 15.84 18.35C15.78 18.38 15.71 18.39 15.64 18.39C15.57 18.39 15.5 18.37 15.44 18.33L7.87 13.78C7.82 13.75 7.78 13.71 7.75 13.66C7.72 13.61 7.71 13.55 7.71 13.5C7.71 13.44 7.72 13.39 7.75 13.34C7.78 13.29 7.82 13.24 7.87 13.21L15.44 8.66C15.5 8.63 15.57 8.61 15.64 8.6C15.71 8.6 15.78 8.61 15.84 8.64C15.9 8.67 15.95 8.72 15.99 8.77C16.02 8.82 16.04 8.88 16.04 8.94L16.04 11.35L21.58 11.35C21.68 11.35 21.78 11.38 21.85 11.45C21.92 11.51 21.96 11.6 21.96 11.69L21.96 15.3C21.96 15.4 21.92 15.48 21.85 15.55C21.78 15.61 21.68 15.65 21.58 15.65L16.04 15.65L16.04 18.05Z" fill="#FFFFFF" fill-opacity="1.000000" fill-rule="nonzero"/>
	<path id="Vector2" d="" fill="#707070" fill-opacity="0" fill-rule="evenodd"/>
</svg>
